<svg width="20" height="20" viewBox="0 0 20 20" fill="none" xmlns="http://www.w3.org/2000/svg">
<path d="M15.6067 4.1956C15.6446 4.1933 15.6827 4.1941 15.7205 4.19919C15.7437 4.20231 15.7657 4.20967 15.788 4.21547C15.8019 4.21906 15.8162 4.22093 15.8298 4.22556C15.8475 4.23161 15.8641 4.24008 15.8811 4.24776C15.9329 4.27119 15.983 4.30064 16.0278 4.34026C16.0724 4.37972 16.1075 4.42598 16.1371 4.47427C16.1468 4.49015 16.1573 4.50551 16.1656 4.52237C16.199 4.59136 16.2187 4.66549 16.2234 4.74084L16.7125 12.7053C16.732 13.0264 16.4874 13.3023 16.1663 13.322C15.8452 13.3417 15.5686 13.0978 15.5486 12.7769L15.1462 6.21594L5.88801 16.6853C5.67483 16.9263 5.30643 16.9494 5.06536 16.7362C4.82436 16.5231 4.8014 16.1547 5.01441 15.9136L14.2726 5.44425L7.71364 5.84657C7.39258 5.86617 7.11684 5.62236 7.097 5.30133C7.0773 4.98021 7.32111 4.70358 7.64218 4.68372L15.6067 4.1956Z" fill="currentColor"/>
</svg>
