<svg width="32" height="32" viewBox="0 0 32 32" fill="none" xmlns="http://www.w3.org/2000/svg">
<path d="M15.9999 -3.05176e-05C7.16788 -3.05176e-05 -0.00012207 7.16797 -0.00012207 16C-0.00012207 24.832 7.16788 32 15.9999 32C24.8319 32 31.9999 24.832 31.9999 16C31.9999 7.16797 24.8319 -3.05176e-05 15.9999 -3.05176e-05ZM23.4239 10.88C23.1839 13.408 22.1439 19.552 21.6159 22.384C21.3919 23.584 20.9439 23.984 20.5279 24.032C19.5999 24.112 18.8959 23.424 17.9999 22.832C16.5919 21.904 15.7919 21.328 14.4319 20.432C12.8479 19.392 13.8719 18.816 14.7839 17.888C15.0239 17.648 19.1199 13.92 19.1999 13.584C19.211 13.5331 19.2095 13.4802 19.1956 13.4301C19.1816 13.3799 19.1556 13.3338 19.1199 13.296C19.0239 13.216 18.8959 13.248 18.7839 13.264C18.6399 13.296 16.3999 14.784 12.0319 17.728C11.3919 18.16 10.8159 18.384 10.3039 18.368C9.72788 18.352 8.63988 18.048 7.82388 17.776C6.81588 17.456 6.03188 17.28 6.09588 16.72C6.12788 16.432 6.52788 16.144 7.27988 15.84C11.9519 13.808 15.0559 12.464 16.6079 11.824C21.0559 9.96797 21.9679 9.64797 22.5759 9.64797C22.7039 9.64797 23.0079 9.67997 23.1999 9.83997C23.3599 9.96797 23.4079 10.144 23.4239 10.272C23.4079 10.368 23.4399 10.656 23.4239 10.88Z" fill="currentColor"/>
</svg>
