<svg width="32" height="32" viewBox="0 0 32 32" fill="none" xmlns="http://www.w3.org/2000/svg">
<path d="M15.9999 -8.01086e-05C7.16321 -8.01086e-05 -0.00012207 7.16325 -0.00012207 15.9999C-0.00012207 24.8366 7.16321 31.9999 15.9999 31.9999C24.8365 31.9999 31.9999 24.8366 31.9999 15.9999C31.9999 7.16325 24.8365 -8.01086e-05 15.9999 -8.01086e-05ZM22.1532 18.0516C22.1532 18.0516 23.5682 19.4483 23.9165 20.0966C23.9265 20.1099 23.9315 20.1233 23.9349 20.1299C24.0765 20.3683 24.1099 20.5533 24.0399 20.6916C23.9232 20.9216 23.5232 21.0349 23.3865 21.0449H20.8865C20.7132 21.0449 20.3499 20.9999 19.9099 20.6966C19.5715 20.4599 19.2382 20.0716 18.9132 19.6933C18.4282 19.1299 18.0082 18.6433 17.5849 18.6433C17.5311 18.6432 17.4777 18.6516 17.4265 18.6683C17.1065 18.7716 16.6965 19.2283 16.6965 20.4449C16.6965 20.8249 16.3965 21.0433 16.1849 21.0433H15.0399C14.6499 21.0433 12.6182 20.9066 10.8182 19.0083C8.61488 16.6833 6.63154 12.0199 6.61488 11.9766C6.48988 11.6749 6.74821 11.5133 7.02988 11.5133H9.55488C9.89154 11.5133 10.0015 11.7183 10.0782 11.8999C10.1682 12.1116 10.4982 12.9533 11.0399 13.8999C11.9182 15.4433 12.4565 16.0699 12.8882 16.0699C12.9692 16.069 13.0487 16.0484 13.1199 16.0099C13.6832 15.6966 13.5782 13.6883 13.5532 13.2716C13.5532 13.1933 13.5515 12.3733 13.2632 11.9799C13.0565 11.6949 12.7049 11.5866 12.4915 11.5466C12.5779 11.4274 12.6917 11.3308 12.8232 11.2649C13.2099 11.0716 13.9065 11.0433 14.5982 11.0433H14.9832C15.7332 11.0533 15.9265 11.1016 16.1982 11.1699C16.7482 11.3016 16.7599 11.6566 16.7115 12.8716C16.6965 13.2166 16.6815 13.6066 16.6815 14.0666C16.6815 14.1666 16.6765 14.2733 16.6765 14.3866C16.6599 15.0049 16.6399 15.7066 17.0765 15.9949C17.1335 16.0306 17.1993 16.0497 17.2665 16.0499C17.4182 16.0499 17.8749 16.0499 19.1115 13.9283C19.4929 13.2453 19.8244 12.5357 20.1032 11.8049C20.1282 11.7616 20.2015 11.6283 20.2882 11.5766C20.3522 11.544 20.4231 11.5274 20.4949 11.5283H23.4632C23.7865 11.5283 24.0082 11.5766 24.0499 11.7016C24.1232 11.8999 24.0365 12.5049 22.6815 14.3399L22.0765 15.1383C20.8482 16.7483 20.8482 16.8299 22.1532 18.0516Z" fill="currentColor"/>
</svg>
